<?xml version="1.0" encoding="utf-8"?>
<!-- Generator: Adobe Illustrator 16.0.0, SVG Export Plug-In . SVG Version: 6.00 Build 0)  -->
<!DOCTYPE svg PUBLIC "-//W3C//DTD SVG 1.1//EN" "http://www.w3.org/Graphics/SVG/1.1/DTD/svg11.dtd">
<svg version="1.1" id="Layer_1" xmlns="http://www.w3.org/2000/svg" xmlns:xlink="http://www.w3.org/1999/xlink" x="0px" y="0px"
	 width="25px" height="1096.948px" viewBox="0 0 25 1096.948" enable-background="new 0 0 25 1096.948" xml:space="preserve">
<g>
	<path fill="#FFFFFF" d="M12.524,3.063c-5.427,0-10.032-0.424-11.766-1.015H0.025v507.003h24.999V2.048h-0.733
		C22.558,2.639,17.951,3.063,12.524,3.063z"/>
	<path fill="#FFFFFF" d="M12.524,4.238c-5.427,0-10.032-0.914-11.766-2.19H0.025v1094.9h24.999V2.048h-0.733
		C22.558,3.324,17.951,4.238,12.524,4.238z"/>
	<polygon fill="#F69899" points="0,273.95 25.05,258.283 25.05,229.044 0,244.711 	"/>
	<polygon fill="#F69899" points="0,332.735 25.05,317.069 25.05,287.83 0,303.496 	"/>
	<polygon fill="#F69899" points="0,450.307 25.05,434.641 25.05,405.401 0,421.067 	"/>
	<polygon fill="#F69899" points="0,509.093 25.05,493.426 25.05,464.187 0,479.854 	"/>
	<polygon fill="#F69899" points="0,391.521 25.05,375.854 25.05,346.615 0,362.282 	"/>
	<polygon fill="#F69899" points="0,97.593 25.05,81.927 25.05,52.688 0,68.354 	"/>
	<polygon fill="#F69899" points="0,156.379 25.05,140.712 25.05,111.473 0,127.14 	"/>
	<polygon fill="#F69899" points="0,215.164 25.05,199.498 25.05,170.259 0,185.925 	"/>
	<polygon fill="#F69899" points="0,685.449 25.05,669.782 25.05,640.543 0,656.21 	"/>
	<polygon fill="#F69899" points="0,744.234 25.05,728.568 25.05,699.329 0,714.995 	"/>
	<polygon fill="#F69899" points="0,861.806 25.05,846.14 25.05,816.9 0,832.566 	"/>
	<polygon fill="#F69899" points="0,920.592 25.05,904.925 25.05,875.686 0,891.353 	"/>
	<polygon fill="#F69899" points="0,803.021 25.05,787.354 25.05,758.114 0,773.781 	"/>
	<polygon fill="#F69899" points="0,567.878 25.05,552.211 25.05,522.972 0,538.639 	"/>
	<polygon fill="#F69899" points="0,626.663 25.05,610.997 25.05,581.758 0,597.424 	"/>
	<polygon fill="#F69899" points="0,979.377 25.05,963.71 25.05,934.471 0,950.138 	"/>
	<polygon fill="#F69899" points="0,1038.162 25.05,1022.496 25.05,993.257 0,1008.923 	"/>
	<polygon fill="#F69899" points="0,1096.948 25.05,1081.281 25.05,1052.042 0,1067.709 	"/>
	<path fill="#F69899" d="M25.037,1.531c0,0.846-5.602,1.531-12.513,1.531c-6.91,0-12.512-0.686-12.512-1.531H0v37.276l25.05-15.667
		V1.531H25.037z"/>
	<ellipse fill="#FAFBFB" cx="12.525" cy="1.531" rx="12.512" ry="1.531"/>
	<path fill="#FBDEDD" d="M12.524,0.417c6.332,0,11.551,0.576,12.384,1.323c0.076-0.068,0.129-0.138,0.129-0.209
		C25.037,0.686,19.436,0,12.524,0C5.614,0,0.013,0.686,0.013,1.531c0,0.071,0.053,0.141,0.129,0.209
		C0.975,0.993,6.193,0.417,12.524,0.417z"/>
</g>
</svg>
